<svg class="marks" width="846" height="315" viewBox="0 0 846 315" version="1.1" xmlns="http://www.w3.org/2000/svg"><g transform="translate(97,57)"><g class="mark-group role-frame root"><g transform="translate(0,0)"><path class="background" d="M0,0h0v0h0Z" style="fill: none;"></path><g><g class="mark-group role-column-title column_title"><g transform="translate(336,-42)"><path class="background" d="M0,0h0v0h0Z" style="fill: none;"></path><g><g class="mark-text role-column-title-text"><text text-anchor="middle" transform="translate(0,0)" style="font: bold 11px sans-serif; fill: #000;">age</text></g></g></g></g><g class="mark-group role-row-header row_header"><g transform="translate(-11,0)"><path class="background" d="M0,0h0v200h0Z" style="fill: none;"></path><g><g class="mark-group role-axis"><g transform="translate(0.5,0.5)"><path class="background" d="M0,0h0v0h0Z" style="pointer-events: none; fill: none;"></path><g><g class="mark-rule role-axis-tick" style="pointer-events: none;"><line transform="translate(0,200)" x2="-5" y2="0" style="fill: none; stroke: #888; stroke-width: 1; opacity: 1;"></line><line transform="translate(0,160)" x2="-5" y2="0" style="fill: none; stroke: #888; stroke-width: 1; opacity: 1;"></line><line transform="translate(0,120)" x2="-5" y2="0" style="fill: none; stroke: #888; stroke-width: 1; opacity: 1;"></line><line transform="translate(0,80)" x2="-5" y2="0" style="fill: none; stroke: #888; stroke-width: 1; opacity: 1;"></line><line transform="translate(0,40)" x2="-5" y2="0" style="fill: none; stroke: #888; stroke-width: 1; opacity: 1;"></line><line transform="translate(0,0)" x2="-5" y2="0" style="fill: none; stroke: #888; stroke-width: 1; opacity: 1;"></line></g><g class="mark-text role-axis-label" style="pointer-events: none;"><text text-anchor="end" transform="translate(-7,203)" style="font: 10px sans-serif; fill: #000; opacity: 1;">0</text><text text-anchor="end" transform="translate(-7,163)" style="font: 10px sans-serif; fill: #000; opacity: 1;">20,000,000</text><text text-anchor="end" transform="translate(-7,123)" style="font: 10px sans-serif; fill: #000; opacity: 1;">40,000,000</text><text text-anchor="end" transform="translate(-7,83)" style="font: 10px sans-serif; fill: #000; opacity: 1;">60,000,000</text><text text-anchor="end" transform="translate(-7,43)" style="font: 10px sans-serif; fill: #000; opacity: 1;">80,000,000</text><text text-anchor="end" transform="translate(-7,3)" style="font: 10px sans-serif; fill: #000; opacity: 1;">100,000,000</text></g><g class="mark-rule role-axis-domain" style="pointer-events: none;"><line transform="translate(0,200)" x2="0" y2="-200" style="fill: none; stroke: #888; stroke-width: 1; opacity: 1;"></line></g><g class="mark-text role-axis-title" style="pointer-events: none;"><text text-anchor="middle" transform="translate(-68,100) rotate(-90) translate(0,-2)" style="font: bold 11px sans-serif; fill: #000; opacity: 1;">population</text></g></g></g></g></g></g></g><g class="mark-group role-column-header column_header"><g transform="translate(0,-11)"><path class="background" d="M0,0h24v0h-24Z" style="fill: none;"></path><g><g class="mark-text role-title" style="pointer-events: none;"><text text-anchor="middle" transform="translate(12,-12)" style="font: 10px sans-serif; fill: #000; opacity: 1;">0</text></g></g></g><g transform="translate(36,-11)"><path class="background" d="M0,0h24v0h-24Z" style="fill: none;"></path><g><g class="mark-text role-title" style="pointer-events: none;"><text text-anchor="middle" transform="translate(12,-12)" style="font: 10px sans-serif; fill: #000; opacity: 1;">5</text></g></g></g><g transform="translate(72,-11)"><path class="background" d="M0,0h24v0h-24Z" style="fill: none;"></path><g><g class="mark-text role-title" style="pointer-events: none;"><text text-anchor="middle" transform="translate(12,-12)" style="font: 10px sans-serif; fill: #000; opacity: 1;">10</text></g></g></g><g transform="translate(108,-11)"><path class="background" d="M0,0h24v0h-24Z" style="fill: none;"></path><g><g class="mark-text role-title" style="pointer-events: none;"><text text-anchor="middle" transform="translate(12,-12)" style="font: 10px sans-serif; fill: #000; opacity: 1;">15</text></g></g></g><g transform="translate(144,-11)"><path class="background" d="M0,0h24v0h-24Z" style="fill: none;"></path><g><g class="mark-text role-title" style="pointer-events: none;"><text text-anchor="middle" transform="translate(12,-12)" style="font: 10px sans-serif; fill: #000; opacity: 1;">20</text></g></g></g><g transform="translate(180,-11)"><path class="background" d="M0,0h24v0h-24Z" style="fill: none;"></path><g><g class="mark-text role-title" style="pointer-events: none;"><text text-anchor="middle" transform="translate(12,-12)" style="font: 10px sans-serif; fill: #000; opacity: 1;">25</text></g></g></g><g transform="translate(216,-11)"><path class="background" d="M0,0h24v0h-24Z" style="fill: none;"></path><g><g class="mark-text role-title" style="pointer-events: none;"><text text-anchor="middle" transform="translate(12,-12)" style="font: 10px sans-serif; fill: #000; opacity: 1;">30</text></g></g></g><g transform="translate(252,-11)"><path class="background" d="M0,0h24v0h-24Z" style="fill: none;"></path><g><g class="mark-text role-title" style="pointer-events: none;"><text text-anchor="middle" transform="translate(12,-12)" style="font: 10px sans-serif; fill: #000; opacity: 1;">35</text></g></g></g><g transform="translate(288,-11)"><path class="background" d="M0,0h24v0h-24Z" style="fill: none;"></path><g><g class="mark-text role-title" style="pointer-events: none;"><text text-anchor="middle" transform="translate(12,-12)" style="font: 10px sans-serif; fill: #000; opacity: 1;">40</text></g></g></g><g transform="translate(324,-11)"><path class="background" d="M0,0h24v0h-24Z" style="fill: none;"></path><g><g class="mark-text role-title" style="pointer-events: none;"><text text-anchor="middle" transform="translate(12,-12)" style="font: 10px sans-serif; fill: #000; opacity: 1;">45</text></g></g></g><g transform="translate(360,-11)"><path class="background" d="M0,0h24v0h-24Z" style="fill: none;"></path><g><g class="mark-text role-title" style="pointer-events: none;"><text text-anchor="middle" transform="translate(12,-12)" style="font: 10px sans-serif; fill: #000; opacity: 1;">50</text></g></g></g><g transform="translate(396,-11)"><path class="background" d="M0,0h24v0h-24Z" style="fill: none;"></path><g><g class="mark-text role-title" style="pointer-events: none;"><text text-anchor="middle" transform="translate(12,-12)" style="font: 10px sans-serif; fill: #000; opacity: 1;">55</text></g></g></g><g transform="translate(432,-11)"><path class="background" d="M0,0h24v0h-24Z" style="fill: none;"></path><g><g class="mark-text role-title" style="pointer-events: none;"><text text-anchor="middle" transform="translate(12,-12)" style="font: 10px sans-serif; fill: #000; opacity: 1;">60</text></g></g></g><g transform="translate(468,-11)"><path class="background" d="M0,0h24v0h-24Z" style="fill: none;"></path><g><g class="mark-text role-title" style="pointer-events: none;"><text text-anchor="middle" transform="translate(12,-12)" style="font: 10px sans-serif; fill: #000; opacity: 1;">65</text></g></g></g><g transform="translate(504,-11)"><path class="background" d="M0,0h24v0h-24Z" style="fill: none;"></path><g><g class="mark-text role-title" style="pointer-events: none;"><text text-anchor="middle" transform="translate(12,-12)" style="font: 10px sans-serif; fill: #000; opacity: 1;">70</text></g></g></g><g transform="translate(540,-11)"><path class="background" d="M0,0h24v0h-24Z" style="fill: none;"></path><g><g class="mark-text role-title" style="pointer-events: none;"><text text-anchor="middle" transform="translate(12,-12)" style="font: 10px sans-serif; fill: #000; opacity: 1;">75</text></g></g></g><g transform="translate(576,-11)"><path class="background" d="M0,0h24v0h-24Z" style="fill: none;"></path><g><g class="mark-text role-title" style="pointer-events: none;"><text text-anchor="middle" transform="translate(12,-12)" style="font: 10px sans-serif; fill: #000; opacity: 1;">80</text></g></g></g><g transform="translate(612,-11)"><path class="background" d="M0,0h24v0h-24Z" style="fill: none;"></path><g><g class="mark-text role-title" style="pointer-events: none;"><text text-anchor="middle" transform="translate(12,-12)" style="font: 10px sans-serif; fill: #000; opacity: 1;">85</text></g></g></g><g transform="translate(648,-11)"><path class="background" d="M0,0h24v0h-24Z" style="fill: none;"></path><g><g class="mark-text role-title" style="pointer-events: none;"><text text-anchor="middle" transform="translate(12,-12)" style="font: 10px sans-serif; fill: #000; opacity: 1;">90</text></g></g></g></g><g class="mark-group role-column-footer column_footer"><g transform="translate(0,211)"><path class="background" d="M0,0h24v0h-24Z" style="fill: none;"></path><g><g class="mark-group role-axis"><g transform="translate(0.5,0.5)"><path class="background" d="M0,0h0v0h0Z" style="pointer-events: none; fill: none;"></path><g><g class="mark-rule role-axis-tick" style="pointer-events: none;"><line transform="translate(5,0)" x2="0" y2="5" style="fill: none; stroke: #888; stroke-width: 1; opacity: 1;"></line><line transform="translate(17,0)" x2="0" y2="5" style="fill: none; stroke: #888; stroke-width: 1; opacity: 1;"></line></g><g class="mark-text role-axis-label" style="pointer-events: none;"><text text-anchor="end" transform="translate(5.000000000000002,7) rotate(270) translate(0,3)" style="font: 10px sans-serif; fill: #000; opacity: 1;">Female</text><text text-anchor="end" transform="translate(17,7) rotate(270) translate(0,3)" style="font: 10px sans-serif; fill: #000; opacity: 1;">Male</text></g><g class="mark-rule role-axis-domain" style="pointer-events: none;"><line transform="translate(0,0)" x2="24" y2="0" style="fill: none; stroke: #888; stroke-width: 1; opacity: 1;"></line></g></g></g></g></g></g><g transform="translate(36,211)"><path class="background" d="M0,0h24v0h-24Z" style="fill: none;"></path><g><g class="mark-group role-axis"><g transform="translate(0.5,0.5)"><path class="background" d="M0,0h0v0h0Z" style="pointer-events: none; fill: none;"></path><g><g class="mark-rule role-axis-tick" style="pointer-events: none;"><line transform="translate(5,0)" x2="0" y2="5" style="fill: none; stroke: #888; stroke-width: 1; opacity: 1;"></line><line transform="translate(17,0)" x2="0" y2="5" style="fill: none; stroke: #888; stroke-width: 1; opacity: 1;"></line></g><g class="mark-text role-axis-label" style="pointer-events: none;"><text text-anchor="end" transform="translate(5.000000000000002,7) rotate(270) translate(0,3)" style="font: 10px sans-serif; fill: #000; opacity: 1;">Female</text><text text-anchor="end" transform="translate(17,7) rotate(270) translate(0,3)" style="font: 10px sans-serif; fill: #000; opacity: 1;">Male</text></g><g class="mark-rule role-axis-domain" style="pointer-events: none;"><line transform="translate(0,0)" x2="24" y2="0" style="fill: none; stroke: #888; stroke-width: 1; opacity: 1;"></line></g></g></g></g></g></g><g transform="translate(72,211)"><path class="background" d="M0,0h24v0h-24Z" style="fill: none;"></path><g><g class="mark-group role-axis"><g transform="translate(0.5,0.5)"><path class="background" d="M0,0h0v0h0Z" style="pointer-events: none; fill: none;"></path><g><g class="mark-rule role-axis-tick" style="pointer-events: none;"><line transform="translate(5,0)" x2="0" y2="5" style="fill: none; stroke: #888; stroke-width: 1; opacity: 1;"></line><line transform="translate(17,0)" x2="0" y2="5" style="fill: none; stroke: #888; stroke-width: 1; opacity: 1;"></line></g><g class="mark-text role-axis-label" style="pointer-events: none;"><text text-anchor="end" transform="translate(5.000000000000002,7) rotate(270) translate(0,3)" style="font: 10px sans-serif; fill: #000; opacity: 1;">Female</text><text text-anchor="end" transform="translate(17,7) rotate(270) translate(0,3)" style="font: 10px sans-serif; fill: #000; opacity: 1;">Male</text></g><g class="mark-rule role-axis-domain" style="pointer-events: none;"><line transform="translate(0,0)" x2="24" y2="0" style="fill: none; stroke: #888; stroke-width: 1; opacity: 1;"></line></g></g></g></g></g></g><g transform="translate(108,211)"><path class="background" d="M0,0h24v0h-24Z" style="fill: none;"></path><g><g class="mark-group role-axis"><g transform="translate(0.5,0.5)"><path class="background" d="M0,0h0v0h0Z" style="pointer-events: none; fill: none;"></path><g><g class="mark-rule role-axis-tick" style="pointer-events: none;"><line transform="translate(5,0)" x2="0" y2="5" style="fill: none; stroke: #888; stroke-width: 1; opacity: 1;"></line><line transform="translate(17,0)" x2="0" y2="5" style="fill: none; stroke: #888; stroke-width: 1; opacity: 1;"></line></g><g class="mark-text role-axis-label" style="pointer-events: none;"><text text-anchor="end" transform="translate(5.000000000000002,7) rotate(270) translate(0,3)" style="font: 10px sans-serif; fill: #000; opacity: 1;">Female</text><text text-anchor="end" transform="translate(17,7) rotate(270) translate(0,3)" style="font: 10px sans-serif; fill: #000; opacity: 1;">Male</text></g><g class="mark-rule role-axis-domain" style="pointer-events: none;"><line transform="translate(0,0)" x2="24" y2="0" style="fill: none; stroke: #888; stroke-width: 1; opacity: 1;"></line></g></g></g></g></g></g><g transform="translate(144,211)"><path class="background" d="M0,0h24v0h-24Z" style="fill: none;"></path><g><g class="mark-group role-axis"><g transform="translate(0.5,0.5)"><path class="background" d="M0,0h0v0h0Z" style="pointer-events: none; fill: none;"></path><g><g class="mark-rule role-axis-tick" style="pointer-events: none;"><line transform="translate(5,0)" x2="0" y2="5" style="fill: none; stroke: #888; stroke-width: 1; opacity: 1;"></line><line transform="translate(17,0)" x2="0" y2="5" style="fill: none; stroke: #888; stroke-width: 1; opacity: 1;"></line></g><g class="mark-text role-axis-label" style="pointer-events: none;"><text text-anchor="end" transform="translate(5.000000000000002,7) rotate(270) translate(0,3)" style="font: 10px sans-serif; fill: #000; opacity: 1;">Female</text><text text-anchor="end" transform="translate(17,7) rotate(270) translate(0,3)" style="font: 10px sans-serif; fill: #000; opacity: 1;">Male</text></g><g class="mark-rule role-axis-domain" style="pointer-events: none;"><line transform="translate(0,0)" x2="24" y2="0" style="fill: none; stroke: #888; stroke-width: 1; opacity: 1;"></line></g></g></g></g></g></g><g transform="translate(180,211)"><path class="background" d="M0,0h24v0h-24Z" style="fill: none;"></path><g><g class="mark-group role-axis"><g transform="translate(0.5,0.5)"><path class="background" d="M0,0h0v0h0Z" style="pointer-events: none; fill: none;"></path><g><g class="mark-rule role-axis-tick" style="pointer-events: none;"><line transform="translate(5,0)" x2="0" y2="5" style="fill: none; stroke: #888; stroke-width: 1; opacity: 1;"></line><line transform="translate(17,0)" x2="0" y2="5" style="fill: none; stroke: #888; stroke-width: 1; opacity: 1;"></line></g><g class="mark-text role-axis-label" style="pointer-events: none;"><text text-anchor="end" transform="translate(5.000000000000002,7) rotate(270) translate(0,3)" style="font: 10px sans-serif; fill: #000; opacity: 1;">Female</text><text text-anchor="end" transform="translate(17,7) rotate(270) translate(0,3)" style="font: 10px sans-serif; fill: #000; opacity: 1;">Male</text></g><g class="mark-rule role-axis-domain" style="pointer-events: none;"><line transform="translate(0,0)" x2="24" y2="0" style="fill: none; stroke: #888; stroke-width: 1; opacity: 1;"></line></g></g></g></g></g></g><g transform="translate(216,211)"><path class="background" d="M0,0h24v0h-24Z" style="fill: none;"></path><g><g class="mark-group role-axis"><g transform="translate(0.5,0.5)"><path class="background" d="M0,0h0v0h0Z" style="pointer-events: none; fill: none;"></path><g><g class="mark-rule role-axis-tick" style="pointer-events: none;"><line transform="translate(5,0)" x2="0" y2="5" style="fill: none; stroke: #888; stroke-width: 1; opacity: 1;"></line><line transform="translate(17,0)" x2="0" y2="5" style="fill: none; stroke: #888; stroke-width: 1; opacity: 1;"></line></g><g class="mark-text role-axis-label" style="pointer-events: none;"><text text-anchor="end" transform="translate(5.000000000000002,7) rotate(270) translate(0,3)" style="font: 10px sans-serif; fill: #000; opacity: 1;">Female</text><text text-anchor="end" transform="translate(17,7) rotate(270) translate(0,3)" style="font: 10px sans-serif; fill: #000; opacity: 1;">Male</text></g><g class="mark-rule role-axis-domain" style="pointer-events: none;"><line transform="translate(0,0)" x2="24" y2="0" style="fill: none; stroke: #888; stroke-width: 1; opacity: 1;"></line></g></g></g></g></g></g><g transform="translate(252,211)"><path class="background" d="M0,0h24v0h-24Z" style="fill: none;"></path><g><g class="mark-group role-axis"><g transform="translate(0.5,0.5)"><path class="background" d="M0,0h0v0h0Z" style="pointer-events: none; fill: none;"></path><g><g class="mark-rule role-axis-tick" style="pointer-events: none;"><line transform="translate(5,0)" x2="0" y2="5" style="fill: none; stroke: #888; stroke-width: 1; opacity: 1;"></line><line transform="translate(17,0)" x2="0" y2="5" style="fill: none; stroke: #888; stroke-width: 1; opacity: 1;"></line></g><g class="mark-text role-axis-label" style="pointer-events: none;"><text text-anchor="end" transform="translate(5.000000000000002,7) rotate(270) translate(0,3)" style="font: 10px sans-serif; fill: #000; opacity: 1;">Female</text><text text-anchor="end" transform="translate(17,7) rotate(270) translate(0,3)" style="font: 10px sans-serif; fill: #000; opacity: 1;">Male</text></g><g class="mark-rule role-axis-domain" style="pointer-events: none;"><line transform="translate(0,0)" x2="24" y2="0" style="fill: none; stroke: #888; stroke-width: 1; opacity: 1;"></line></g></g></g></g></g></g><g transform="translate(288,211)"><path class="background" d="M0,0h24v0h-24Z" style="fill: none;"></path><g><g class="mark-group role-axis"><g transform="translate(0.5,0.5)"><path class="background" d="M0,0h0v0h0Z" style="pointer-events: none; fill: none;"></path><g><g class="mark-rule role-axis-tick" style="pointer-events: none;"><line transform="translate(5,0)" x2="0" y2="5" style="fill: none; stroke: #888; stroke-width: 1; opacity: 1;"></line><line transform="translate(17,0)" x2="0" y2="5" style="fill: none; stroke: #888; stroke-width: 1; opacity: 1;"></line></g><g class="mark-text role-axis-label" style="pointer-events: none;"><text text-anchor="end" transform="translate(5.000000000000002,7) rotate(270) translate(0,3)" style="font: 10px sans-serif; fill: #000; opacity: 1;">Female</text><text text-anchor="end" transform="translate(17,7) rotate(270) translate(0,3)" style="font: 10px sans-serif; fill: #000; opacity: 1;">Male</text></g><g class="mark-rule role-axis-domain" style="pointer-events: none;"><line transform="translate(0,0)" x2="24" y2="0" style="fill: none; stroke: #888; stroke-width: 1; opacity: 1;"></line></g></g></g></g></g></g><g transform="translate(324,211)"><path class="background" d="M0,0h24v0h-24Z" style="fill: none;"></path><g><g class="mark-group role-axis"><g transform="translate(0.5,0.5)"><path class="background" d="M0,0h0v0h0Z" style="pointer-events: none; fill: none;"></path><g><g class="mark-rule role-axis-tick" style="pointer-events: none;"><line transform="translate(5,0)" x2="0" y2="5" style="fill: none; stroke: #888; stroke-width: 1; opacity: 1;"></line><line transform="translate(17,0)" x2="0" y2="5" style="fill: none; stroke: #888; stroke-width: 1; opacity: 1;"></line></g><g class="mark-text role-axis-label" style="pointer-events: none;"><text text-anchor="end" transform="translate(5.000000000000002,7) rotate(270) translate(0,3)" style="font: 10px sans-serif; fill: #000; opacity: 1;">Female</text><text text-anchor="end" transform="translate(17,7) rotate(270) translate(0,3)" style="font: 10px sans-serif; fill: #000; opacity: 1;">Male</text></g><g class="mark-rule role-axis-domain" style="pointer-events: none;"><line transform="translate(0,0)" x2="24" y2="0" style="fill: none; stroke: #888; stroke-width: 1; opacity: 1;"></line></g></g></g></g></g></g><g transform="translate(360,211)"><path class="background" d="M0,0h24v0h-24Z" style="fill: none;"></path><g><g class="mark-group role-axis"><g transform="translate(0.5,0.5)"><path class="background" d="M0,0h0v0h0Z" style="pointer-events: none; fill: none;"></path><g><g class="mark-rule role-axis-tick" style="pointer-events: none;"><line transform="translate(5,0)" x2="0" y2="5" style="fill: none; stroke: #888; stroke-width: 1; opacity: 1;"></line><line transform="translate(17,0)" x2="0" y2="5" style="fill: none; stroke: #888; stroke-width: 1; opacity: 1;"></line></g><g class="mark-text role-axis-label" style="pointer-events: none;"><text text-anchor="end" transform="translate(5.000000000000002,7) rotate(270) translate(0,3)" style="font: 10px sans-serif; fill: #000; opacity: 1;">Female</text><text text-anchor="end" transform="translate(17,7) rotate(270) translate(0,3)" style="font: 10px sans-serif; fill: #000; opacity: 1;">Male</text></g><g class="mark-rule role-axis-domain" style="pointer-events: none;"><line transform="translate(0,0)" x2="24" y2="0" style="fill: none; stroke: #888; stroke-width: 1; opacity: 1;"></line></g></g></g></g></g></g><g transform="translate(396,211)"><path class="background" d="M0,0h24v0h-24Z" style="fill: none;"></path><g><g class="mark-group role-axis"><g transform="translate(0.5,0.5)"><path class="background" d="M0,0h0v0h0Z" style="pointer-events: none; fill: none;"></path><g><g class="mark-rule role-axis-tick" style="pointer-events: none;"><line transform="translate(5,0)" x2="0" y2="5" style="fill: none; stroke: #888; stroke-width: 1; opacity: 1;"></line><line transform="translate(17,0)" x2="0" y2="5" style="fill: none; stroke: #888; stroke-width: 1; opacity: 1;"></line></g><g class="mark-text role-axis-label" style="pointer-events: none;"><text text-anchor="end" transform="translate(5.000000000000002,7) rotate(270) translate(0,3)" style="font: 10px sans-serif; fill: #000; opacity: 1;">Female</text><text text-anchor="end" transform="translate(17,7) rotate(270) translate(0,3)" style="font: 10px sans-serif; fill: #000; opacity: 1;">Male</text></g><g class="mark-rule role-axis-domain" style="pointer-events: none;"><line transform="translate(0,0)" x2="24" y2="0" style="fill: none; stroke: #888; stroke-width: 1; opacity: 1;"></line></g></g></g></g></g></g><g transform="translate(432,211)"><path class="background" d="M0,0h24v0h-24Z" style="fill: none;"></path><g><g class="mark-group role-axis"><g transform="translate(0.5,0.5)"><path class="background" d="M0,0h0v0h0Z" style="pointer-events: none; fill: none;"></path><g><g class="mark-rule role-axis-tick" style="pointer-events: none;"><line transform="translate(5,0)" x2="0" y2="5" style="fill: none; stroke: #888; stroke-width: 1; opacity: 1;"></line><line transform="translate(17,0)" x2="0" y2="5" style="fill: none; stroke: #888; stroke-width: 1; opacity: 1;"></line></g><g class="mark-text role-axis-label" style="pointer-events: none;"><text text-anchor="end" transform="translate(5.000000000000002,7) rotate(270) translate(0,3)" style="font: 10px sans-serif; fill: #000; opacity: 1;">Female</text><text text-anchor="end" transform="translate(17,7) rotate(270) translate(0,3)" style="font: 10px sans-serif; fill: #000; opacity: 1;">Male</text></g><g class="mark-rule role-axis-domain" style="pointer-events: none;"><line transform="translate(0,0)" x2="24" y2="0" style="fill: none; stroke: #888; stroke-width: 1; opacity: 1;"></line></g></g></g></g></g></g><g transform="translate(468,211)"><path class="background" d="M0,0h24v0h-24Z" style="fill: none;"></path><g><g class="mark-group role-axis"><g transform="translate(0.5,0.5)"><path class="background" d="M0,0h0v0h0Z" style="pointer-events: none; fill: none;"></path><g><g class="mark-rule role-axis-tick" style="pointer-events: none;"><line transform="translate(5,0)" x2="0" y2="5" style="fill: none; stroke: #888; stroke-width: 1; opacity: 1;"></line><line transform="translate(17,0)" x2="0" y2="5" style="fill: none; stroke: #888; stroke-width: 1; opacity: 1;"></line></g><g class="mark-text role-axis-label" style="pointer-events: none;"><text text-anchor="end" transform="translate(5.000000000000002,7) rotate(270) translate(0,3)" style="font: 10px sans-serif; fill: #000; opacity: 1;">Female</text><text text-anchor="end" transform="translate(17,7) rotate(270) translate(0,3)" style="font: 10px sans-serif; fill: #000; opacity: 1;">Male</text></g><g class="mark-rule role-axis-domain" style="pointer-events: none;"><line transform="translate(0,0)" x2="24" y2="0" style="fill: none; stroke: #888; stroke-width: 1; opacity: 1;"></line></g></g></g></g></g></g><g transform="translate(504,211)"><path class="background" d="M0,0h24v0h-24Z" style="fill: none;"></path><g><g class="mark-group role-axis"><g transform="translate(0.5,0.5)"><path class="background" d="M0,0h0v0h0Z" style="pointer-events: none; fill: none;"></path><g><g class="mark-rule role-axis-tick" style="pointer-events: none;"><line transform="translate(5,0)" x2="0" y2="5" style="fill: none; stroke: #888; stroke-width: 1; opacity: 1;"></line><line transform="translate(17,0)" x2="0" y2="5" style="fill: none; stroke: #888; stroke-width: 1; opacity: 1;"></line></g><g class="mark-text role-axis-label" style="pointer-events: none;"><text text-anchor="end" transform="translate(5.000000000000002,7) rotate(270) translate(0,3)" style="font: 10px sans-serif; fill: #000; opacity: 1;">Female</text><text text-anchor="end" transform="translate(17,7) rotate(270) translate(0,3)" style="font: 10px sans-serif; fill: #000; opacity: 1;">Male</text></g><g class="mark-rule role-axis-domain" style="pointer-events: none;"><line transform="translate(0,0)" x2="24" y2="0" style="fill: none; stroke: #888; stroke-width: 1; opacity: 1;"></line></g></g></g></g></g></g><g transform="translate(540,211)"><path class="background" d="M0,0h24v0h-24Z" style="fill: none;"></path><g><g class="mark-group role-axis"><g transform="translate(0.5,0.5)"><path class="background" d="M0,0h0v0h0Z" style="pointer-events: none; fill: none;"></path><g><g class="mark-rule role-axis-tick" style="pointer-events: none;"><line transform="translate(5,0)" x2="0" y2="5" style="fill: none; stroke: #888; stroke-width: 1; opacity: 1;"></line><line transform="translate(17,0)" x2="0" y2="5" style="fill: none; stroke: #888; stroke-width: 1; opacity: 1;"></line></g><g class="mark-text role-axis-label" style="pointer-events: none;"><text text-anchor="end" transform="translate(5.000000000000002,7) rotate(270) translate(0,3)" style="font: 10px sans-serif; fill: #000; opacity: 1;">Female</text><text text-anchor="end" transform="translate(17,7) rotate(270) translate(0,3)" style="font: 10px sans-serif; fill: #000; opacity: 1;">Male</text></g><g class="mark-rule role-axis-domain" style="pointer-events: none;"><line transform="translate(0,0)" x2="24" y2="0" style="fill: none; stroke: #888; stroke-width: 1; opacity: 1;"></line></g></g></g></g></g></g><g transform="translate(576,211)"><path class="background" d="M0,0h24v0h-24Z" style="fill: none;"></path><g><g class="mark-group role-axis"><g transform="translate(0.5,0.5)"><path class="background" d="M0,0h0v0h0Z" style="pointer-events: none; fill: none;"></path><g><g class="mark-rule role-axis-tick" style="pointer-events: none;"><line transform="translate(5,0)" x2="0" y2="5" style="fill: none; stroke: #888; stroke-width: 1; opacity: 1;"></line><line transform="translate(17,0)" x2="0" y2="5" style="fill: none; stroke: #888; stroke-width: 1; opacity: 1;"></line></g><g class="mark-text role-axis-label" style="pointer-events: none;"><text text-anchor="end" transform="translate(5.000000000000002,7) rotate(270) translate(0,3)" style="font: 10px sans-serif; fill: #000; opacity: 1;">Female</text><text text-anchor="end" transform="translate(17,7) rotate(270) translate(0,3)" style="font: 10px sans-serif; fill: #000; opacity: 1;">Male</text></g><g class="mark-rule role-axis-domain" style="pointer-events: none;"><line transform="translate(0,0)" x2="24" y2="0" style="fill: none; stroke: #888; stroke-width: 1; opacity: 1;"></line></g></g></g></g></g></g><g transform="translate(612,211)"><path class="background" d="M0,0h24v0h-24Z" style="fill: none;"></path><g><g class="mark-group role-axis"><g transform="translate(0.5,0.5)"><path class="background" d="M0,0h0v0h0Z" style="pointer-events: none; fill: none;"></path><g><g class="mark-rule role-axis-tick" style="pointer-events: none;"><line transform="translate(5,0)" x2="0" y2="5" style="fill: none; stroke: #888; stroke-width: 1; opacity: 1;"></line><line transform="translate(17,0)" x2="0" y2="5" style="fill: none; stroke: #888; stroke-width: 1; opacity: 1;"></line></g><g class="mark-text role-axis-label" style="pointer-events: none;"><text text-anchor="end" transform="translate(5.000000000000002,7) rotate(270) translate(0,3)" style="font: 10px sans-serif; fill: #000; opacity: 1;">Female</text><text text-anchor="end" transform="translate(17,7) rotate(270) translate(0,3)" style="font: 10px sans-serif; fill: #000; opacity: 1;">Male</text></g><g class="mark-rule role-axis-domain" style="pointer-events: none;"><line transform="translate(0,0)" x2="24" y2="0" style="fill: none; stroke: #888; stroke-width: 1; opacity: 1;"></line></g></g></g></g></g></g><g transform="translate(648,211)"><path class="background" d="M0,0h24v0h-24Z" style="fill: none;"></path><g><g class="mark-group role-axis"><g transform="translate(0.5,0.5)"><path class="background" d="M0,0h0v0h0Z" style="pointer-events: none; fill: none;"></path><g><g class="mark-rule role-axis-tick" style="pointer-events: none;"><line transform="translate(5,0)" x2="0" y2="5" style="fill: none; stroke: #888; stroke-width: 1; opacity: 1;"></line><line transform="translate(17,0)" x2="0" y2="5" style="fill: none; stroke: #888; stroke-width: 1; opacity: 1;"></line></g><g class="mark-text role-axis-label" style="pointer-events: none;"><text text-anchor="end" transform="translate(5.000000000000002,7) rotate(270) translate(0,3)" style="font: 10px sans-serif; fill: #000; opacity: 1;">Female</text><text text-anchor="end" transform="translate(17,7) rotate(270) translate(0,3)" style="font: 10px sans-serif; fill: #000; opacity: 1;">Male</text></g><g class="mark-rule role-axis-domain" style="pointer-events: none;"><line transform="translate(0,0)" x2="24" y2="0" style="fill: none; stroke: #888; stroke-width: 1; opacity: 1;"></line></g></g></g></g></g></g></g><g class="mark-group role-scope cell"><g transform="translate(0,0)"><path class="background" d="M0.5,0.5h24v200h-24Z" style="fill: transparent; stroke: transparent;"></path><g><g class="mark-rect role-mark child_marks"><path d="M12.600000000000001,16.572940000000017h10.8v183.42705999999998h-10.8Z" style="fill: #659CCA;"></path><path d="M0.6000000000000014,22.675870000000003h10.8v177.32413h-10.8Z" style="fill: #EA98D2;"></path></g></g></g><g transform="translate(36,0)"><path class="background" d="M0.5,0.5h24v200h-24Z" style="fill: transparent; stroke: transparent;"></path><g><g class="mark-rect role-mark child_marks"><path d="M12.600000000000001,17.360174h10.8v182.639826h-10.8Z" style="fill: #659CCA;"></path><path d="M0.6000000000000014,23.99839800000001h10.8v176.001602h-10.8Z" style="fill: #EA98D2;"></path></g></g></g><g transform="translate(72,0)"><path class="background" d="M0.5,0.5h24v200h-24Z" style="fill: transparent; stroke: transparent;"></path><g><g class="mark-rect role-mark child_marks"><path d="M12.600000000000001,23.810455999999988h10.8v176.189544h-10.8Z" style="fill: #659CCA;"></path><path d="M0.6000000000000014,29.944267999999994h10.8v170.055732h-10.8Z" style="fill: #EA98D2;"></path></g></g></g><g transform="translate(108,0)"><path class="background" d="M0.5,0.5h24v200h-24Z" style="fill: transparent; stroke: transparent;"></path><g><g class="mark-rect role-mark child_marks"><path d="M12.600000000000001,33.36289199999999h10.8v166.637108h-10.8Z" style="fill: #659CCA;"></path><path d="M0.6000000000000014,35.27325999999999h10.8v164.72674h-10.8Z" style="fill: #EA98D2;"></path></g></g></g><g transform="translate(144,0)"><path class="background" d="M0.5,0.5h24v200h-24Z" style="fill: transparent; stroke: transparent;"></path><g><g class="mark-rect role-mark child_marks"><path d="M12.600000000000001,42.36770999999999h10.8v157.63229h-10.8Z" style="fill: #659CCA;"></path><path d="M0.6000000000000014,39.998729999999995h10.8v160.00127h-10.8Z" style="fill: #EA98D2;"></path></g></g></g><g transform="translate(180,0)"><path class="background" d="M0.5,0.5h24v200h-24Z" style="fill: transparent; stroke: transparent;"></path><g><g class="mark-rect role-mark child_marks"><path d="M12.600000000000001,47.822666h10.8v152.177334h-10.8Z" style="fill: #659CCA;"></path><path d="M0.6000000000000014,46.814442000000014h10.8v153.185558h-10.8Z" style="fill: #EA98D2;"></path></g></g></g><g transform="translate(216,0)"><path class="background" d="M0.5,0.5h24v200h-24Z" style="fill: transparent; stroke: transparent;"></path><g><g class="mark-rect role-mark child_marks"><path d="M12.600000000000001,56.271124000000015h10.8v143.72887599999999h-10.8Z" style="fill: #659CCA;"></path><path d="M0.6000000000000014,55.929202000000004h10.8v144.070798h-10.8Z" style="fill: #EA98D2;"></path></g></g></g><g transform="translate(252,0)"><path class="background" d="M0.5,0.5h24v200h-24Z" style="fill: transparent; stroke: transparent;"></path><g><g class="mark-rect role-mark child_marks"><path d="M12.600000000000001,62.443746000000004h10.8v137.556254h-10.8Z" style="fill: #659CCA;"></path><path d="M0.6000000000000014,61.91274799999999h10.8v138.087252h-10.8Z" style="fill: #EA98D2;"></path></g></g></g><g transform="translate(288,0)"><path class="background" d="M0.5,0.5h24v200h-24Z" style="fill: transparent; stroke: transparent;"></path><g><g class="mark-rect role-mark child_marks"><path d="M12.600000000000001,74.96839200000001h10.8v125.03160799999999h-10.8Z" style="fill: #659CCA;"></path><path d="M0.6000000000000014,74.89451199999999h10.8v125.10548800000001h-10.8Z" style="fill: #EA98D2;"></path></g></g></g><g transform="translate(324,0)"><path class="background" d="M0.5,0.5h24v200h-24Z" style="fill: transparent; stroke: transparent;"></path><g><g class="mark-rect role-mark child_marks"><path d="M12.600000000000001,88.313568h10.8v111.686432h-10.8Z" style="fill: #659CCA;"></path><path d="M0.6000000000000014,88.363902h10.8v111.636098h-10.8Z" style="fill: #EA98D2;"></path></g></g></g><g transform="translate(360,0)"><path class="background" d="M0.5,0.5h24v200h-24Z" style="fill: transparent; stroke: transparent;"></path><g><g class="mark-rect role-mark child_marks"><path d="M12.600000000000001,100.875406h10.8v99.124594h-10.8Z" style="fill: #659CCA;"></path><path d="M0.6000000000000014,100.68104h10.8v99.31896h-10.8Z" style="fill: #EA98D2;"></path></g></g></g><g transform="translate(396,0)"><path class="background" d="M0.5,0.5h24v200h-24Z" style="fill: transparent; stroke: transparent;"></path><g><g class="mark-rect role-mark child_marks"><path d="M12.600000000000001,117.72848h10.8v82.27152h-10.8Z" style="fill: #659CCA;"></path><path d="M0.6000000000000014,115.230268h10.8v84.769732h-10.8Z" style="fill: #EA98D2;"></path></g></g></g><g transform="translate(432,0)"><path class="background" d="M0.5,0.5h24v200h-24Z" style="fill: transparent; stroke: transparent;"></path><g><g class="mark-rect role-mark child_marks"><path d="M12.600000000000001,130.683806h10.8v69.316194h-10.8Z" style="fill: #659CCA;"></path><path d="M0.6000000000000014,126.247952h10.8v73.752048h-10.8Z" style="fill: #EA98D2;"></path></g></g></g><g transform="translate(468,0)"><path class="background" d="M0.5,0.5h24v200h-24Z" style="fill: transparent; stroke: transparent;"></path><g><g class="mark-rect role-mark child_marks"><path d="M12.600000000000001,143.782284h10.8v56.217715999999996h-10.8Z" style="fill: #659CCA;"></path><path d="M0.6000000000000014,136.995306h10.8v63.004694h-10.8Z" style="fill: #EA98D2;"></path></g></g></g><g transform="translate(504,0)"><path class="background" d="M0.5,0.5h24v200h-24Z" style="fill: transparent; stroke: transparent;"></path><g><g class="mark-rect role-mark child_marks"><path d="M12.600000000000001,158.61771h10.8v41.38229000000001h-10.8Z" style="fill: #659CCA;"></path><path d="M0.6000000000000014,148.65062999999998h10.8v51.34937000000002h-10.8Z" style="fill: #EA98D2;"></path></g></g></g><g transform="translate(540,0)"><path class="background" d="M0.5,0.5h24v200h-24Z" style="fill: transparent; stroke: transparent;"></path><g><g class="mark-rect role-mark child_marks"><path d="M12.600000000000001,172.80548199999998h10.8v27.194518000000016h-10.8Z" style="fill: #659CCA;"></path><path d="M0.6000000000000014,162.421294h10.8v37.57870600000001h-10.8Z" style="fill: #EA98D2;"></path></g></g></g><g transform="translate(576,0)"><path class="background" d="M0.5,0.5h24v200h-24Z" style="fill: transparent; stroke: transparent;"></path><g><g class="mark-rect role-mark child_marks"><path d="M12.600000000000001,184.94798h10.8v15.052019999999999h-10.8Z" style="fill: #659CCA;"></path><path d="M0.6000000000000014,176.001418h10.8v23.998582h-10.8Z" style="fill: #EA98D2;"></path></g></g></g><g transform="translate(612,0)"><path class="background" d="M0.5,0.5h24v200h-24Z" style="fill: transparent; stroke: transparent;"></path><g><g class="mark-rect role-mark child_marks"><path d="M12.600000000000001,193.416798h10.8v6.583202h-10.8Z" style="fill: #659CCA;"></path><path d="M0.6000000000000014,187.499504h10.8v12.500495999999998h-10.8Z" style="fill: #EA98D2;"></path></g></g></g><g transform="translate(648,0)"><path class="background" d="M0.5,0.5h24v200h-24Z" style="fill: transparent; stroke: transparent;"></path><g><g class="mark-rect role-mark child_marks"><path d="M12.600000000000001,197.47668h10.8v2.5233200000000124h-10.8Z" style="fill: #659CCA;"></path><path d="M0.6000000000000014,193.850606h10.8v6.149394000000001h-10.8Z" style="fill: #EA98D2;"></path></g></g></g></g><g class="mark-group role-legend"><g transform="translate(691,0)"><path class="background" d="M0,0h53v42h-53Z" style="pointer-events: none; fill: none;"></path><g><g class="mark-group role-legend-entry"><g transform="translate(0,16)"><path class="background" d="M0,0h0v0h0Z" style="pointer-events: none; fill: none;"></path><g><g class="mark-symbol role-legend-symbol" style="pointer-events: none;"><path transform="translate(5,5)" d="M-5,-5h10v10h-10Z" style="fill: #EA98D2; stroke-width: 1.5; opacity: 1;"></path><path transform="translate(5,20)" d="M-5,-5h10v10h-10Z" style="fill: #659CCA; stroke-width: 1.5; opacity: 1;"></path></g><g class="mark-text role-legend-label" style="pointer-events: none;"><text text-anchor="start" transform="translate(18,8)" style="font: 10px sans-serif; fill: #000; opacity: 1;">Female</text><text text-anchor="start" transform="translate(18,23)" style="font: 10px sans-serif; fill: #000; opacity: 1;">Male</text></g></g></g></g><g class="mark-text role-legend-title" style="pointer-events: none;"><text text-anchor="start" transform="translate(0,9)" style="font: bold 11px sans-serif; fill: #000; opacity: 1;">gender</text></g></g></g></g></g></g></g></g></svg>
