<svg class="marks" width="485" height="253" viewBox="0 0 485 253" version="1.1" xmlns="http://www.w3.org/2000/svg"><g transform="translate(86,11)"><g class="mark-group role-frame root"><g transform="translate(0,0)"><path class="background" d="M0.5,0.5h323v200h-323Z" style="fill: transparent; stroke: #ddd;"></path><g><g class="mark-group role-axis"><g transform="translate(0.5,0.5)"><path class="background" d="M0,0h0v0h0Z" style="pointer-events: none; fill: none;"></path><g><g class="mark-rule role-axis-grid" style="pointer-events: none;"><line transform="translate(0,200)" x2="323" y2="0" style="fill: none; stroke: #ddd; stroke-width: 1; stroke-dasharray: ; opacity: 1;"></line><line transform="translate(0,160)" x2="323" y2="0" style="fill: none; stroke: #ddd; stroke-width: 1; stroke-dasharray: ; opacity: 1;"></line><line transform="translate(0,120)" x2="323" y2="0" style="fill: none; stroke: #ddd; stroke-width: 1; stroke-dasharray: ; opacity: 1;"></line><line transform="translate(0,80)" x2="323" y2="0" style="fill: none; stroke: #ddd; stroke-width: 1; stroke-dasharray: ; opacity: 1;"></line><line transform="translate(0,40)" x2="323" y2="0" style="fill: none; stroke: #ddd; stroke-width: 1; stroke-dasharray: ; opacity: 1;"></line><line transform="translate(0,0)" x2="323" y2="0" style="fill: none; stroke: #ddd; stroke-width: 1; stroke-dasharray: ; opacity: 1;"></line></g></g></g></g><g class="mark-rect role-mark marks"><path d="M0.8500000000000227,16.572940000000017h15.3v183.42705999999998h-15.3Z" style="fill: #1f77b4; opacity: 0.7;"></path><path d="M0.8500000000000227,22.675870000000003h15.3v177.32413h-15.3Z" style="fill: #e377c2; opacity: 0.7;"></path><path d="M17.850000000000023,17.360174h15.3v182.639826h-15.3Z" style="fill: #1f77b4; opacity: 0.7;"></path><path d="M17.850000000000023,23.99839800000001h15.3v176.001602h-15.3Z" style="fill: #e377c2; opacity: 0.7;"></path><path d="M34.85000000000002,23.810455999999988h15.3v176.189544h-15.3Z" style="fill: #1f77b4; opacity: 0.7;"></path><path d="M34.85000000000002,29.944267999999994h15.3v170.055732h-15.3Z" style="fill: #e377c2; opacity: 0.7;"></path><path d="M51.85000000000002,33.36289199999999h15.3v166.637108h-15.3Z" style="fill: #1f77b4; opacity: 0.7;"></path><path d="M51.85000000000002,35.27325999999999h15.3v164.72674h-15.3Z" style="fill: #e377c2; opacity: 0.7;"></path><path d="M68.85000000000002,42.36770999999999h15.3v157.63229h-15.3Z" style="fill: #1f77b4; opacity: 0.7;"></path><path d="M68.85000000000002,39.998729999999995h15.3v160.00127h-15.3Z" style="fill: #e377c2; opacity: 0.7;"></path><path d="M85.85000000000002,47.822666h15.3v152.177334h-15.3Z" style="fill: #1f77b4; opacity: 0.7;"></path><path d="M85.85000000000002,46.814442000000014h15.3v153.185558h-15.3Z" style="fill: #e377c2; opacity: 0.7;"></path><path d="M102.85000000000002,56.271124000000015h15.3v143.72887599999999h-15.3Z" style="fill: #1f77b4; opacity: 0.7;"></path><path d="M102.85000000000002,55.929202000000004h15.3v144.070798h-15.3Z" style="fill: #e377c2; opacity: 0.7;"></path><path d="M119.85000000000002,62.443746000000004h15.3v137.556254h-15.3Z" style="fill: #1f77b4; opacity: 0.7;"></path><path d="M119.85000000000002,61.91274799999999h15.3v138.087252h-15.3Z" style="fill: #e377c2; opacity: 0.7;"></path><path d="M136.85000000000002,74.96839200000001h15.3v125.03160799999999h-15.3Z" style="fill: #1f77b4; opacity: 0.7;"></path><path d="M136.85000000000002,74.89451199999999h15.3v125.10548800000001h-15.3Z" style="fill: #e377c2; opacity: 0.7;"></path><path d="M153.85000000000002,88.313568h15.3v111.686432h-15.3Z" style="fill: #1f77b4; opacity: 0.7;"></path><path d="M153.85000000000002,88.363902h15.3v111.636098h-15.3Z" style="fill: #e377c2; opacity: 0.7;"></path><path d="M170.85000000000002,100.875406h15.3v99.124594h-15.3Z" style="fill: #1f77b4; opacity: 0.7;"></path><path d="M170.85000000000002,100.68104h15.3v99.31896h-15.3Z" style="fill: #e377c2; opacity: 0.7;"></path><path d="M187.85000000000002,117.72848h15.3v82.27152h-15.3Z" style="fill: #1f77b4; opacity: 0.7;"></path><path d="M187.85000000000002,115.230268h15.3v84.769732h-15.3Z" style="fill: #e377c2; opacity: 0.7;"></path><path d="M204.85000000000002,130.683806h15.3v69.316194h-15.3Z" style="fill: #1f77b4; opacity: 0.7;"></path><path d="M204.85000000000002,126.247952h15.3v73.752048h-15.3Z" style="fill: #e377c2; opacity: 0.7;"></path><path d="M221.85000000000002,143.782284h15.3v56.217715999999996h-15.3Z" style="fill: #1f77b4; opacity: 0.7;"></path><path d="M221.85000000000002,136.995306h15.3v63.004694h-15.3Z" style="fill: #e377c2; opacity: 0.7;"></path><path d="M238.85000000000002,158.61771h15.3v41.38229000000001h-15.3Z" style="fill: #1f77b4; opacity: 0.7;"></path><path d="M238.85000000000002,148.65062999999998h15.3v51.34937000000002h-15.3Z" style="fill: #e377c2; opacity: 0.7;"></path><path d="M255.85000000000002,172.80548199999998h15.3v27.194518000000016h-15.3Z" style="fill: #1f77b4; opacity: 0.7;"></path><path d="M255.85000000000002,162.421294h15.3v37.57870600000001h-15.3Z" style="fill: #e377c2; opacity: 0.7;"></path><path d="M272.85,184.94798h15.3v15.052019999999999h-15.3Z" style="fill: #1f77b4; opacity: 0.7;"></path><path d="M272.85,176.001418h15.3v23.998582h-15.3Z" style="fill: #e377c2; opacity: 0.7;"></path><path d="M289.85,193.416798h15.3v6.583202h-15.3Z" style="fill: #1f77b4; opacity: 0.7;"></path><path d="M289.85,187.499504h15.3v12.500495999999998h-15.3Z" style="fill: #e377c2; opacity: 0.7;"></path><path d="M306.85,197.47668h15.3v2.5233200000000124h-15.3Z" style="fill: #1f77b4; opacity: 0.7;"></path><path d="M306.85,193.850606h15.3v6.149394000000001h-15.3Z" style="fill: #e377c2; opacity: 0.7;"></path></g><g class="mark-group role-legend"><g transform="translate(341,0)"><path class="background" d="M0,0h53v42h-53Z" style="pointer-events: none; fill: none;"></path><g><g class="mark-group role-legend-entry"><g transform="translate(0,16)"><path class="background" d="M0,0h0v0h0Z" style="pointer-events: none; fill: none;"></path><g><g class="mark-symbol role-legend-symbol" style="pointer-events: none;"><path transform="translate(5,5)" d="M-5,-5h10v10h-10Z" style="fill: #e377c2; stroke-width: 1.5; opacity: 0.7;"></path><path transform="translate(5,20)" d="M-5,-5h10v10h-10Z" style="fill: #1f77b4; stroke-width: 1.5; opacity: 0.7;"></path></g><g class="mark-text role-legend-label" style="pointer-events: none;"><text text-anchor="start" transform="translate(18,8)" style="font: 10px sans-serif; fill: #000; opacity: 1;">Female</text><text text-anchor="start" transform="translate(18,23)" style="font: 10px sans-serif; fill: #000; opacity: 1;">Male</text></g></g></g></g><g class="mark-text role-legend-title" style="pointer-events: none;"><text text-anchor="start" transform="translate(0,9)" style="font: bold 11px sans-serif; fill: #000; opacity: 1;">gender</text></g></g></g></g><g class="mark-group role-axis"><g transform="translate(0.5,200.5)"><path class="background" d="M0,0h0v0h0Z" style="pointer-events: none; fill: none;"></path><g><g class="mark-rule role-axis-tick" style="pointer-events: none;"><line transform="translate(8,0)" x2="0" y2="5" style="fill: none; stroke: #888; stroke-width: 1; opacity: 1;"></line><line transform="translate(25,0)" x2="0" y2="5" style="fill: none; stroke: #888; stroke-width: 1; opacity: 1;"></line><line transform="translate(42,0)" x2="0" y2="5" style="fill: none; stroke: #888; stroke-width: 1; opacity: 1;"></line><line transform="translate(59,0)" x2="0" y2="5" style="fill: none; stroke: #888; stroke-width: 1; opacity: 1;"></line><line transform="translate(76,0)" x2="0" y2="5" style="fill: none; stroke: #888; stroke-width: 1; opacity: 1;"></line><line transform="translate(93,0)" x2="0" y2="5" style="fill: none; stroke: #888; stroke-width: 1; opacity: 1;"></line><line transform="translate(110,0)" x2="0" y2="5" style="fill: none; stroke: #888; stroke-width: 1; opacity: 1;"></line><line transform="translate(127,0)" x2="0" y2="5" style="fill: none; stroke: #888; stroke-width: 1; opacity: 1;"></line><line transform="translate(144,0)" x2="0" y2="5" style="fill: none; stroke: #888; stroke-width: 1; opacity: 1;"></line><line transform="translate(161,0)" x2="0" y2="5" style="fill: none; stroke: #888; stroke-width: 1; opacity: 1;"></line><line transform="translate(178,0)" x2="0" y2="5" style="fill: none; stroke: #888; stroke-width: 1; opacity: 1;"></line><line transform="translate(195,0)" x2="0" y2="5" style="fill: none; stroke: #888; stroke-width: 1; opacity: 1;"></line><line transform="translate(212,0)" x2="0" y2="5" style="fill: none; stroke: #888; stroke-width: 1; opacity: 1;"></line><line transform="translate(229,0)" x2="0" y2="5" style="fill: none; stroke: #888; stroke-width: 1; opacity: 1;"></line><line transform="translate(246,0)" x2="0" y2="5" style="fill: none; stroke: #888; stroke-width: 1; opacity: 1;"></line><line transform="translate(263,0)" x2="0" y2="5" style="fill: none; stroke: #888; stroke-width: 1; opacity: 1;"></line><line transform="translate(280,0)" x2="0" y2="5" style="fill: none; stroke: #888; stroke-width: 1; opacity: 1;"></line><line transform="translate(297,0)" x2="0" y2="5" style="fill: none; stroke: #888; stroke-width: 1; opacity: 1;"></line><line transform="translate(314,0)" x2="0" y2="5" style="fill: none; stroke: #888; stroke-width: 1; opacity: 1;"></line></g><g class="mark-text role-axis-label" style="pointer-events: none;"><text text-anchor="end" transform="translate(7.500000000000023,7) rotate(270) translate(0,3)" style="font: 10px sans-serif; fill: #000; opacity: 1;">0</text><text text-anchor="end" transform="translate(24.50000000000002,7) rotate(270) translate(0,3)" style="font: 10px sans-serif; fill: #000; opacity: 1;">5</text><text text-anchor="end" transform="translate(41.50000000000002,7) rotate(270) translate(0,3)" style="font: 10px sans-serif; fill: #000; opacity: 1;">10</text><text text-anchor="end" transform="translate(58.50000000000002,7) rotate(270) translate(0,3)" style="font: 10px sans-serif; fill: #000; opacity: 1;">15</text><text text-anchor="end" transform="translate(75.50000000000003,7) rotate(270) translate(0,3)" style="font: 10px sans-serif; fill: #000; opacity: 1;">20</text><text text-anchor="end" transform="translate(92.50000000000003,7) rotate(270) translate(0,3)" style="font: 10px sans-serif; fill: #000; opacity: 1;">25</text><text text-anchor="end" transform="translate(109.50000000000003,7) rotate(270) translate(0,3)" style="font: 10px sans-serif; fill: #000; opacity: 1;">30</text><text text-anchor="end" transform="translate(126.50000000000003,7) rotate(270) translate(0,3)" style="font: 10px sans-serif; fill: #000; opacity: 1;">35</text><text text-anchor="end" transform="translate(143.50000000000003,7) rotate(270) translate(0,3)" style="font: 10px sans-serif; fill: #000; opacity: 1;">40</text><text text-anchor="end" transform="translate(160.50000000000003,7) rotate(270) translate(0,3)" style="font: 10px sans-serif; fill: #000; opacity: 1;">45</text><text text-anchor="end" transform="translate(177.50000000000003,7) rotate(270) translate(0,3)" style="font: 10px sans-serif; fill: #000; opacity: 1;">50</text><text text-anchor="end" transform="translate(194.50000000000003,7) rotate(270) translate(0,3)" style="font: 10px sans-serif; fill: #000; opacity: 1;">55</text><text text-anchor="end" transform="translate(211.50000000000003,7) rotate(270) translate(0,3)" style="font: 10px sans-serif; fill: #000; opacity: 1;">60</text><text text-anchor="end" transform="translate(228.50000000000003,7) rotate(270) translate(0,3)" style="font: 10px sans-serif; fill: #000; opacity: 1;">65</text><text text-anchor="end" transform="translate(245.50000000000003,7) rotate(270) translate(0,3)" style="font: 10px sans-serif; fill: #000; opacity: 1;">70</text><text text-anchor="end" transform="translate(262.5,7) rotate(270) translate(0,3)" style="font: 10px sans-serif; fill: #000; opacity: 1;">75</text><text text-anchor="end" transform="translate(279.5,7) rotate(270) translate(0,3)" style="font: 10px sans-serif; fill: #000; opacity: 1;">80</text><text text-anchor="end" transform="translate(296.5,7) rotate(270) translate(0,3)" style="font: 10px sans-serif; fill: #000; opacity: 1;">85</text><text text-anchor="end" transform="translate(313.5,7) rotate(270) translate(0,3)" style="font: 10px sans-serif; fill: #000; opacity: 1;">90</text></g><g class="mark-rule role-axis-domain" style="pointer-events: none;"><line transform="translate(0,0)" x2="323" y2="0" style="fill: none; stroke: #888; stroke-width: 1; opacity: 1;"></line></g><g class="mark-text role-axis-title" style="pointer-events: none;"><text text-anchor="middle" transform="translate(161.5,33.00000000000001)" style="font: bold 11px sans-serif; fill: #000; opacity: 1;">age</text></g></g></g></g><g class="mark-group role-axis"><g transform="translate(0.5,0.5)"><path class="background" d="M0,0h0v0h0Z" style="pointer-events: none; fill: none;"></path><g><g class="mark-rule role-axis-tick" style="pointer-events: none;"><line transform="translate(0,200)" x2="-5" y2="0" style="fill: none; stroke: #888; stroke-width: 1; opacity: 1;"></line><line transform="translate(0,160)" x2="-5" y2="0" style="fill: none; stroke: #888; stroke-width: 1; opacity: 1;"></line><line transform="translate(0,120)" x2="-5" y2="0" style="fill: none; stroke: #888; stroke-width: 1; opacity: 1;"></line><line transform="translate(0,80)" x2="-5" y2="0" style="fill: none; stroke: #888; stroke-width: 1; opacity: 1;"></line><line transform="translate(0,40)" x2="-5" y2="0" style="fill: none; stroke: #888; stroke-width: 1; opacity: 1;"></line><line transform="translate(0,0)" x2="-5" y2="0" style="fill: none; stroke: #888; stroke-width: 1; opacity: 1;"></line></g><g class="mark-text role-axis-label" style="pointer-events: none;"><text text-anchor="end" transform="translate(-7,203)" style="font: 10px sans-serif; fill: #000; opacity: 1;">0</text><text text-anchor="end" transform="translate(-7,163)" style="font: 10px sans-serif; fill: #000; opacity: 1;">20,000,000</text><text text-anchor="end" transform="translate(-7,123)" style="font: 10px sans-serif; fill: #000; opacity: 1;">40,000,000</text><text text-anchor="end" transform="translate(-7,83)" style="font: 10px sans-serif; fill: #000; opacity: 1;">60,000,000</text><text text-anchor="end" transform="translate(-7,43)" style="font: 10px sans-serif; fill: #000; opacity: 1;">80,000,000</text><text text-anchor="end" transform="translate(-7,3)" style="font: 10px sans-serif; fill: #000; opacity: 1;">100,000,000</text></g><g class="mark-rule role-axis-domain" style="pointer-events: none;"><line transform="translate(0,200)" x2="0" y2="-200" style="fill: none; stroke: #888; stroke-width: 1; opacity: 1;"></line></g><g class="mark-text role-axis-title" style="pointer-events: none;"><text text-anchor="middle" transform="translate(-68,100) rotate(-90) translate(0,-2)" style="font: bold 11px sans-serif; fill: #000; opacity: 1;">population</text></g></g></g></g></g></g></g></g></svg>
