<svg class="marks" width="451" height="253" viewBox="0 0 451 253" version="1.1" xmlns="http://www.w3.org/2000/svg"><g transform="translate(52,11)"><g class="mark-group role-frame root"><g transform="translate(0,0)"><path class="background" d="M0.5,0.5h323v200h-323Z" style="fill: transparent; stroke: #ddd;"></path><g><g class="mark-group role-axis"><g transform="translate(0.5,0.5)"><path class="background" d="M0,0h0v0h0Z" style="pointer-events: none; fill: none;"></path><g><g class="mark-rule role-axis-grid" style="pointer-events: none;"><line transform="translate(0,200)" x2="323" y2="0" style="fill: none; stroke: #ddd; stroke-width: 1; stroke-dasharray: ; opacity: 1;"></line><line transform="translate(0,160)" x2="323" y2="0" style="fill: none; stroke: #ddd; stroke-width: 1; stroke-dasharray: ; opacity: 1;"></line><line transform="translate(0,120)" x2="323" y2="0" style="fill: none; stroke: #ddd; stroke-width: 1; stroke-dasharray: ; opacity: 1;"></line><line transform="translate(0,80)" x2="323" y2="0" style="fill: none; stroke: #ddd; stroke-width: 1; stroke-dasharray: ; opacity: 1;"></line><line transform="translate(0,40)" x2="323" y2="0" style="fill: none; stroke: #ddd; stroke-width: 1; stroke-dasharray: ; opacity: 1;"></line><line transform="translate(0,0)" x2="323" y2="0" style="fill: none; stroke: #ddd; stroke-width: 1; stroke-dasharray: ; opacity: 1;"></line></g></g></g></g><g class="mark-rect role-mark marks"><path d="M0.8500000000000227,98.30827169274204h15.3v101.69172830725796h-15.3Z" style="fill: #659CCA;"></path><path d="M0.8500000000000227,0h15.3v98.30827169274204h-15.3Z" style="fill: #EA98D2;"></path><path d="M17.850000000000023,98.14906380531141h15.3v101.85093619468859h-15.3Z" style="fill: #659CCA;"></path><path d="M17.850000000000023,0h15.3v98.14906380531141h-15.3Z" style="fill: #EA98D2;"></path><path d="M34.85000000000002,98.22847778001164h15.3v101.77152221998836h-15.3Z" style="fill: #659CCA;"></path><path d="M34.85000000000002,0h15.3v98.22847778001164h-15.3Z" style="fill: #EA98D2;"></path><path d="M51.85000000000002,99.42348327630476h15.3v100.57651672369524h-15.3Z" style="fill: #659CCA;"></path><path d="M51.85000000000002,0h15.3v99.42348327630476h-15.3Z" style="fill: #EA98D2;"></path><path d="M68.85000000000002,100.74582169465972h15.3v99.25417830534028h-15.3Z" style="fill: #659CCA;"></path><path d="M68.85000000000002,0h15.3v100.74582169465972h-15.3Z" style="fill: #EA98D2;"></path><path d="M85.85000000000002,100.33017240352832h15.3v99.66982759647168h-15.3Z" style="fill: #659CCA;"></path><path d="M85.85000000000002,0h15.3v100.33017240352832h-15.3Z" style="fill: #EA98D2;"></path><path d="M102.85000000000002,100.1188055550056h15.3v99.8811944449944h-15.3Z" style="fill: #659CCA;"></path><path d="M102.85000000000002,0h15.3v100.1188055550056h-15.3Z" style="fill: #EA98D2;"></path><path d="M119.85000000000002,100.19263940141583h15.3v99.80736059858417h-15.3Z" style="fill: #659CCA;"></path><path d="M119.85000000000002,0h15.3v100.19263940141583h-15.3Z" style="fill: #EA98D2;"></path><path d="M136.85000000000002,100.0295358030382h15.3v99.9704641969618h-15.3Z" style="fill: #659CCA;"></path><path d="M136.85000000000002,0h15.3v100.0295358030382h-15.3Z" style="fill: #EA98D2;"></path><path d="M153.85000000000002,99.97746129779203h15.3v100.02253870220797h-15.3Z" style="fill: #659CCA;"></path><path d="M153.85000000000002,2.842170943040401e-14h15.3v99.977461297792h-15.3Z" style="fill: #EA98D2;"></path><path d="M170.85000000000002,100.09794523232536h15.3v99.90205476767464h-15.3Z" style="fill: #659CCA;"></path><path d="M170.85000000000002,0h15.3v100.09794523232536h-15.3Z" style="fill: #EA98D2;"></path><path d="M187.85000000000002,101.49556589769814h15.3v98.50443410230186h-15.3Z" style="fill: #659CCA;"></path><path d="M187.85000000000002,2.842170943040401e-14h15.3v101.49556589769811h-15.3Z" style="fill: #EA98D2;"></path><path d="M204.85000000000002,103.10051618583529h15.3v96.89948381416471h-15.3Z" style="fill: #659CCA;"></path><path d="M204.85000000000002,0h15.3v103.10051618583529h-15.3Z" style="fill: #EA98D2;"></path><path d="M221.85000000000002,105.69270324262024h15.3v94.30729675737976h-15.3Z" style="fill: #659CCA;"></path><path d="M221.85000000000002,2.842170943040401e-14h15.3v105.69270324262021h-15.3Z" style="fill: #EA98D2;"></path><path d="M238.85000000000002,110.74830322243774h15.3v89.25169677756226h-15.3Z" style="fill: #659CCA;"></path><path d="M238.85000000000002,0h15.3v110.74830322243774h-15.3Z" style="fill: #EA98D2;"></path><path d="M255.85000000000002,116.03160589937595h15.3v83.96839410062405h-15.3Z" style="fill: #659CCA;"></path><path d="M255.85000000000002,0h15.3v116.03160589937595h-15.3Z" style="fill: #EA98D2;"></path><path d="M272.85,122.91017690329076h15.3v77.08982309670924h-15.3Z" style="fill: #659CCA;"></path><path d="M272.85,0h15.3v122.91017690329076h-15.3Z" style="fill: #EA98D2;"></path><path d="M289.85,131.00706162925025h15.3v68.99293837074975h-15.3Z" style="fill: #659CCA;"></path><path d="M289.85,2.842170943040401e-14h15.3v131.00706162925022h-15.3Z" style="fill: #EA98D2;"></path><path d="M306.85,141.81014155430466h15.3v58.189858445695336h-15.3Z" style="fill: #659CCA;"></path><path d="M306.85,0h15.3v141.81014155430466h-15.3Z" style="fill: #EA98D2;"></path></g><g class="mark-group role-legend"><g transform="translate(341,0)"><path class="background" d="M0,0h53v42h-53Z" style="pointer-events: none; fill: none;"></path><g><g class="mark-group role-legend-entry"><g transform="translate(0,16)"><path class="background" d="M0,0h0v0h0Z" style="pointer-events: none; fill: none;"></path><g><g class="mark-symbol role-legend-symbol" style="pointer-events: none;"><path transform="translate(5,5)" d="M-5,-5h10v10h-10Z" style="fill: #EA98D2; stroke-width: 1.5; opacity: 1;"></path><path transform="translate(5,20)" d="M-5,-5h10v10h-10Z" style="fill: #659CCA; stroke-width: 1.5; opacity: 1;"></path></g><g class="mark-text role-legend-label" style="pointer-events: none;"><text text-anchor="start" transform="translate(18,8)" style="font: 10px sans-serif; fill: #000; opacity: 1;">Female</text><text text-anchor="start" transform="translate(18,23)" style="font: 10px sans-serif; fill: #000; opacity: 1;">Male</text></g></g></g></g><g class="mark-text role-legend-title" style="pointer-events: none;"><text text-anchor="start" transform="translate(0,9)" style="font: bold 11px sans-serif; fill: #000; opacity: 1;">gender</text></g></g></g></g><g class="mark-group role-axis"><g transform="translate(0.5,200.5)"><path class="background" d="M0,0h0v0h0Z" style="pointer-events: none; fill: none;"></path><g><g class="mark-rule role-axis-tick" style="pointer-events: none;"><line transform="translate(8,0)" x2="0" y2="5" style="fill: none; stroke: #888; stroke-width: 1; opacity: 1;"></line><line transform="translate(25,0)" x2="0" y2="5" style="fill: none; stroke: #888; stroke-width: 1; opacity: 1;"></line><line transform="translate(42,0)" x2="0" y2="5" style="fill: none; stroke: #888; stroke-width: 1; opacity: 1;"></line><line transform="translate(59,0)" x2="0" y2="5" style="fill: none; stroke: #888; stroke-width: 1; opacity: 1;"></line><line transform="translate(76,0)" x2="0" y2="5" style="fill: none; stroke: #888; stroke-width: 1; opacity: 1;"></line><line transform="translate(93,0)" x2="0" y2="5" style="fill: none; stroke: #888; stroke-width: 1; opacity: 1;"></line><line transform="translate(110,0)" x2="0" y2="5" style="fill: none; stroke: #888; stroke-width: 1; opacity: 1;"></line><line transform="translate(127,0)" x2="0" y2="5" style="fill: none; stroke: #888; stroke-width: 1; opacity: 1;"></line><line transform="translate(144,0)" x2="0" y2="5" style="fill: none; stroke: #888; stroke-width: 1; opacity: 1;"></line><line transform="translate(161,0)" x2="0" y2="5" style="fill: none; stroke: #888; stroke-width: 1; opacity: 1;"></line><line transform="translate(178,0)" x2="0" y2="5" style="fill: none; stroke: #888; stroke-width: 1; opacity: 1;"></line><line transform="translate(195,0)" x2="0" y2="5" style="fill: none; stroke: #888; stroke-width: 1; opacity: 1;"></line><line transform="translate(212,0)" x2="0" y2="5" style="fill: none; stroke: #888; stroke-width: 1; opacity: 1;"></line><line transform="translate(229,0)" x2="0" y2="5" style="fill: none; stroke: #888; stroke-width: 1; opacity: 1;"></line><line transform="translate(246,0)" x2="0" y2="5" style="fill: none; stroke: #888; stroke-width: 1; opacity: 1;"></line><line transform="translate(263,0)" x2="0" y2="5" style="fill: none; stroke: #888; stroke-width: 1; opacity: 1;"></line><line transform="translate(280,0)" x2="0" y2="5" style="fill: none; stroke: #888; stroke-width: 1; opacity: 1;"></line><line transform="translate(297,0)" x2="0" y2="5" style="fill: none; stroke: #888; stroke-width: 1; opacity: 1;"></line><line transform="translate(314,0)" x2="0" y2="5" style="fill: none; stroke: #888; stroke-width: 1; opacity: 1;"></line></g><g class="mark-text role-axis-label" style="pointer-events: none;"><text text-anchor="end" transform="translate(7.500000000000023,7) rotate(270) translate(0,3)" style="font: 10px sans-serif; fill: #000; opacity: 1;">0</text><text text-anchor="end" transform="translate(24.50000000000002,7) rotate(270) translate(0,3)" style="font: 10px sans-serif; fill: #000; opacity: 1;">5</text><text text-anchor="end" transform="translate(41.50000000000002,7) rotate(270) translate(0,3)" style="font: 10px sans-serif; fill: #000; opacity: 1;">10</text><text text-anchor="end" transform="translate(58.50000000000002,7) rotate(270) translate(0,3)" style="font: 10px sans-serif; fill: #000; opacity: 1;">15</text><text text-anchor="end" transform="translate(75.50000000000003,7) rotate(270) translate(0,3)" style="font: 10px sans-serif; fill: #000; opacity: 1;">20</text><text text-anchor="end" transform="translate(92.50000000000003,7) rotate(270) translate(0,3)" style="font: 10px sans-serif; fill: #000; opacity: 1;">25</text><text text-anchor="end" transform="translate(109.50000000000003,7) rotate(270) translate(0,3)" style="font: 10px sans-serif; fill: #000; opacity: 1;">30</text><text text-anchor="end" transform="translate(126.50000000000003,7) rotate(270) translate(0,3)" style="font: 10px sans-serif; fill: #000; opacity: 1;">35</text><text text-anchor="end" transform="translate(143.50000000000003,7) rotate(270) translate(0,3)" style="font: 10px sans-serif; fill: #000; opacity: 1;">40</text><text text-anchor="end" transform="translate(160.50000000000003,7) rotate(270) translate(0,3)" style="font: 10px sans-serif; fill: #000; opacity: 1;">45</text><text text-anchor="end" transform="translate(177.50000000000003,7) rotate(270) translate(0,3)" style="font: 10px sans-serif; fill: #000; opacity: 1;">50</text><text text-anchor="end" transform="translate(194.50000000000003,7) rotate(270) translate(0,3)" style="font: 10px sans-serif; fill: #000; opacity: 1;">55</text><text text-anchor="end" transform="translate(211.50000000000003,7) rotate(270) translate(0,3)" style="font: 10px sans-serif; fill: #000; opacity: 1;">60</text><text text-anchor="end" transform="translate(228.50000000000003,7) rotate(270) translate(0,3)" style="font: 10px sans-serif; fill: #000; opacity: 1;">65</text><text text-anchor="end" transform="translate(245.50000000000003,7) rotate(270) translate(0,3)" style="font: 10px sans-serif; fill: #000; opacity: 1;">70</text><text text-anchor="end" transform="translate(262.5,7) rotate(270) translate(0,3)" style="font: 10px sans-serif; fill: #000; opacity: 1;">75</text><text text-anchor="end" transform="translate(279.5,7) rotate(270) translate(0,3)" style="font: 10px sans-serif; fill: #000; opacity: 1;">80</text><text text-anchor="end" transform="translate(296.5,7) rotate(270) translate(0,3)" style="font: 10px sans-serif; fill: #000; opacity: 1;">85</text><text text-anchor="end" transform="translate(313.5,7) rotate(270) translate(0,3)" style="font: 10px sans-serif; fill: #000; opacity: 1;">90</text></g><g class="mark-rule role-axis-domain" style="pointer-events: none;"><line transform="translate(0,0)" x2="323" y2="0" style="fill: none; stroke: #888; stroke-width: 1; opacity: 1;"></line></g><g class="mark-text role-axis-title" style="pointer-events: none;"><text text-anchor="middle" transform="translate(161.5,33.00000000000001)" style="font: bold 11px sans-serif; fill: #000; opacity: 1;">age</text></g></g></g></g><g class="mark-group role-axis"><g transform="translate(0.5,0.5)"><path class="background" d="M0,0h0v0h0Z" style="pointer-events: none; fill: none;"></path><g><g class="mark-rule role-axis-tick" style="pointer-events: none;"><line transform="translate(0,200)" x2="-5" y2="0" style="fill: none; stroke: #888; stroke-width: 1; opacity: 1;"></line><line transform="translate(0,160)" x2="-5" y2="0" style="fill: none; stroke: #888; stroke-width: 1; opacity: 1;"></line><line transform="translate(0,120)" x2="-5" y2="0" style="fill: none; stroke: #888; stroke-width: 1; opacity: 1;"></line><line transform="translate(0,80)" x2="-5" y2="0" style="fill: none; stroke: #888; stroke-width: 1; opacity: 1;"></line><line transform="translate(0,40)" x2="-5" y2="0" style="fill: none; stroke: #888; stroke-width: 1; opacity: 1;"></line><line transform="translate(0,0)" x2="-5" y2="0" style="fill: none; stroke: #888; stroke-width: 1; opacity: 1;"></line></g><g class="mark-text role-axis-label" style="pointer-events: none;"><text text-anchor="end" transform="translate(-7,203)" style="font: 10px sans-serif; fill: #000; opacity: 1;">0.0</text><text text-anchor="end" transform="translate(-7,163)" style="font: 10px sans-serif; fill: #000; opacity: 1;">0.2</text><text text-anchor="end" transform="translate(-7,123)" style="font: 10px sans-serif; fill: #000; opacity: 1;">0.4</text><text text-anchor="end" transform="translate(-7,83)" style="font: 10px sans-serif; fill: #000; opacity: 1;">0.6</text><text text-anchor="end" transform="translate(-7,43)" style="font: 10px sans-serif; fill: #000; opacity: 1;">0.8</text><text text-anchor="end" transform="translate(-7,3)" style="font: 10px sans-serif; fill: #000; opacity: 1;">1.0</text></g><g class="mark-rule role-axis-domain" style="pointer-events: none;"><line transform="translate(0,200)" x2="0" y2="-200" style="fill: none; stroke: #888; stroke-width: 1; opacity: 1;"></line></g><g class="mark-text role-axis-title" style="pointer-events: none;"><text text-anchor="middle" transform="translate(-34,100) rotate(-90) translate(0,-2)" style="font: bold 11px sans-serif; fill: #000; opacity: 1;">population</text></g></g></g></g></g></g></g></g></svg>
