<svg width="889" height="370" viewBox="0 0 889 370" version="1.1" xmlns="http://www.w3.org/2000/svg" xmlns:xlink="http://www.w3.org/1999/xlink">
<title>zirko4varNEEEEww ALLname var2</title>
<desc>Created using Figma</desc>
<g id="Canvas" transform="translate(600 206)">
<clipPath id="clip-0" clip-rule="evenodd">
<path d="M -600 -206L 289 -206L 289 164L -600 164L -600 -206Z" fill="#FFFFFF"/>
</clipPath>
<g id="Frame" clip-path="url(#clip-0)">
<path d="M -600 -206L 289 -206L 289 164L -600 164L -600 -206Z" fill="#FFFFFF"/>
<g id="Component">
<g id="Rectangle 3.1">
<use xlink:href="#path0_fill" transform="translate(-582 -180)" fill="#B0BEC5"/>
<use xlink:href="#path1_fill" transform="translate(-582 -180)" fill="#B0BEC5"/>
</g>
<g id="Rectangle 4">
<use xlink:href="#path2_fill" transform="translate(-581 73.3366)" fill="#006064"/>
</g>
<g id="Rectangle 2.1">
<use xlink:href="#path3_fill" transform="matrix(0.668414 -0.74379 0.747016 0.664806 -573 73.2511)" fill="#4DB6AC"/>
<mask id="mask0_outline_ins">
<use xlink:href="#path3_fill" fill="white" transform="matrix(0.668414 -0.74379 0.747016 0.664806 -573 73.2511)"/>
</mask>
<g mask="url(#mask0_outline_ins)">
<use xlink:href="#path4_stroke_2x" transform="matrix(0.668414 -0.74379 0.747016 0.664806 -573 73.2511)" fill="#4DB6AC"/>
</g>
</g>
<g id="Rectangle 5">
<use xlink:href="#path5_fill" transform="matrix(0.915619 -0.402048 0.405339 0.914166 -581 143.112)" fill="#4DB6AC"/>
</g>
<g id="Rectangle 6">
<use xlink:href="#path6_fill" transform="translate(-580 -180)" fill="#4DB6AC"/>
</g>
<g id="Subtract">
<use xlink:href="#path7_fill" transform="translate(-581 -169.238)" fill="#006064"/>
<mask id="mask1_outline_ins">
<use xlink:href="#path7_fill" fill="white" transform="translate(-581 -169.238)"/>
</mask>
<g mask="url(#mask1_outline_ins)">
<use xlink:href="#path8_stroke_2x" transform="translate(-581 -169.238)" fill="#006064"/>
</g>
</g>
<g id="Rectangle 3">
<use xlink:href="#path9_fill" transform="translate(-580 -180)" fill="#006064"/>
<use xlink:href="#path10_fill" transform="translate(-580 -180)" fill="#006064"/>
<mask id="mask2_outline_ins">
<use xlink:href="#path9_fill" fill="white" transform="translate(-580 -180)"/>
<use xlink:href="#path10_fill" fill="white" transform="translate(-580 -180)"/>
</mask>
<g mask="url(#mask2_outline_ins)">
<use xlink:href="#path11_stroke_2x" transform="translate(-580 -180)" fill="#006064"/>
</g>
</g>
</g>
<g id="orko">
<use xlink:href="#path12_fill" transform="translate(-304 -125)" fill="#006064"/>
</g>
<g id="Polygon">
<use xlink:href="#path13_fill" transform="matrix(-0.928572 -0.371152 0.371152 -0.928572 -202.706 -21.7406)" fill="#4DB6AC"/>
</g>
</g>
</g>
<defs>
<path id="path0_fill" d="M 42.7831 0L 278 0L 267.609 12L 0 0L 42.7831 0Z"/>
<path id="path1_fill" d="M 0 0L 278 0L 267.609 12L 0 0Z"/>
<path id="path2_fill" d="M 1.14441e-05 0L 277.252 0L 0 70L 1.14441e-05 0Z"/>
<path id="path3_fill" d="M 0 0L 353.553 16.1307L 367.064 31.1201L 39.8888 44.6279L 0 0Z"/>
<path id="path4_stroke_2x" d="M 0 0L 0.0455773 -0.998961L -0.745585 0.66641L 0 0ZM 353.553 16.1307L 354.295 15.4612L 353.598 15.1318L 353.553 16.1307ZM 367.064 31.1201L 367.105 32.1193L 367.807 30.4506L 367.064 31.1201ZM 39.8888 44.6279L 39.1432 45.2943L 39.9301 45.6271L 39.8888 44.6279ZM -0.0455773 0.998961L 353.507 17.1297L 353.598 15.1318L 0.0455773 -0.998961L -0.0455773 0.998961ZM 352.81 16.8003L 366.321 31.7897L 367.807 30.4506L 354.295 15.4612L 352.81 16.8003ZM 367.023 30.121L 39.8475 43.6288L 39.9301 45.6271L 367.105 32.1193L 367.023 30.121ZM 40.6344 43.9615L 0.745585 -0.66641L -0.745585 0.66641L 39.1432 45.2943L 40.6344 43.9615Z"/>
<path id="path5_fill" d="M 0 0L 281.626 47.7105L 253.41 111.449L 0 0Z"/>
<path id="path6_fill" d="M 0 0L 276 0L 218 65L 0 65L 0 0Z"/>
<path id="path7_fill" fill-rule="evenodd" d="M 0 251.411L 246.5 0L 168 31.2377L 0 241.739L 0 251.411Z"/>
<path id="path8_stroke_2x" d="M 246.5 0L 247.214 0.700098L 246.13 -0.929137L 246.5 0ZM 0 251.411L -1 251.411L 0.714046 252.111L 0 251.411ZM 168 31.2377L 167.63 30.3086L 167.218 30.614L 168 31.2377ZM 0 241.739L -0.781595 241.115L -1 241.739L 0 241.739ZM 245.786 -0.700098L -0.714046 250.711L 0.714046 252.111L 247.214 0.700098L 245.786 -0.700098ZM 168.37 32.1669L 246.87 0.929137L 246.13 -0.929137L 167.63 30.3086L 168.37 32.1669ZM 0.781595 242.363L 168.782 31.8615L 167.218 30.614L -0.781595 241.115L 0.781595 242.363ZM -1 241.739L -1 251.411L 1 251.411L 1 241.739L -1 241.739Z"/>
<path id="path9_fill" d="M 0 0L 249.048 8.69831L 186.429 70L 0 0Z"/>
<path id="path10_fill" d="M 0 0L 249.048 8.69831L 186.429 70L 0 0Z"/>
<path id="path11_stroke_2x" d="M 0 0L 0.0174525 -0.499695L -0.175758 0.468091L 0 0ZM 249.048 8.69831L 249.398 9.0556L 250.232 8.23934L 249.066 8.19862L 249.048 8.69831ZM 186.429 70L 186.253 70.4681L 186.552 70.58L 186.779 70.3573L 186.429 70ZM -0.0174525 0.499695L 249.031 9.19801L 249.066 8.19862L 0.0174525 -0.499695L -0.0174525 0.499695ZM 248.699 8.34102L 186.079 69.6427L 186.779 70.3573L 249.398 9.0556L 248.699 8.34102ZM 186.605 69.5319L 0.175758 -0.468091L -0.175758 0.468091L 186.253 70.4681L 186.605 69.5319Z"/>
<path id="path12_fill" d="M 155.232 193.12C 155.232 205.024 153.504 215.776 150.048 225.376C 146.592 234.976 141.696 243.232 135.36 250.144C 129.216 257.056 121.824 262.432 113.184 266.272C 104.544 269.92 95.136 271.744 84.96 271.744C 74.784 271.744 65.376 269.92 56.736 266.272C 48.096 262.432 40.608 257.056 34.272 250.144C 28.128 243.232 23.328 234.976 19.872 225.376C 16.416 215.776 14.688 205.024 14.688 193.12C 14.688 181.408 16.416 170.752 19.872 161.152C 23.328 151.36 28.128 143.008 34.272 136.096C 40.608 129.184 48.096 123.904 56.736 120.256C 65.376 116.416 74.784 114.496 84.96 114.496C 95.136 114.496 104.544 116.416 113.184 120.256C 121.824 123.904 129.216 129.184 135.36 136.096C 141.696 143.008 146.592 151.36 150.048 161.152C 153.504 170.752 155.232 181.408 155.232 193.12ZM 127.296 193.12C 127.296 176.224 123.456 162.88 115.776 153.088C 108.288 143.104 98.016 138.112 84.96 138.112C 71.904 138.112 61.536 143.104 53.856 153.088C 46.368 162.88 42.624 176.224 42.624 193.12C 42.624 210.016 46.368 223.456 53.856 233.44C 61.536 243.232 71.904 248.128 84.96 248.128C 98.016 248.128 108.288 243.232 115.776 233.44C 123.456 223.456 127.296 210.016 127.296 193.12ZM 248.211 115.072C 250.515 115.072 253.107 115.264 255.987 115.648C 259.059 115.84 262.035 116.224 264.915 116.8C 267.795 117.184 270.387 117.664 272.691 118.24C 275.187 118.624 277.011 119.008 278.163 119.392L 273.555 142.72C 271.443 141.952 267.891 141.088 262.899 140.128C 258.099 138.976 251.859 138.4 244.179 138.4C 239.187 138.4 234.195 138.976 229.203 140.128C 224.403 141.088 221.235 141.76 219.699 142.144L 219.699 268L 192.915 268L 192.915 124.576C 199.251 122.272 207.123 120.16 216.531 118.24C 225.939 116.128 236.499 115.072 248.211 115.072ZM 358.153 185.632C 363.913 190.048 369.961 195.52 376.297 202.048C 382.825 208.576 389.161 215.68 395.305 223.36C 401.641 230.848 407.593 238.528 413.161 246.4C 418.729 254.08 423.433 261.28 427.273 268L 395.881 268C 391.849 261.28 387.145 254.464 381.769 247.552C 376.585 240.448 371.113 233.728 365.353 227.392C 359.593 220.864 353.737 214.912 347.785 209.536C 341.833 204.16 336.169 199.648 330.793 196L 330.793 268L 304.009 268L 304.009 49.12L 330.793 44.512L 330.793 181.024C 335.401 176.416 340.489 171.328 346.057 165.76C 351.625 160.192 357.097 154.528 362.473 148.768C 367.849 143.008 372.937 137.536 377.737 132.352C 382.537 126.976 386.665 122.272 390.121 118.24L 421.513 118.24C 417.097 123.04 412.297 128.32 407.113 134.08C 401.929 139.84 396.553 145.696 390.985 151.648C 385.417 157.408 379.753 163.264 373.993 169.216C 368.425 174.976 363.145 180.448 358.153 185.632ZM 578.232 193.12C 578.232 205.024 576.504 215.776 573.048 225.376C 569.592 234.976 564.696 243.232 558.36 250.144C 552.216 257.056 544.824 262.432 536.184 266.272C 527.544 269.92 518.136 271.744 507.96 271.744C 497.784 271.744 488.376 269.92 479.736 266.272C 471.096 262.432 463.608 257.056 457.272 250.144C 451.128 243.232 446.328 234.976 442.872 225.376C 439.416 215.776 437.688 205.024 437.688 193.12C 437.688 181.408 439.416 170.752 442.872 161.152C 446.328 151.36 451.128 143.008 457.272 136.096C 463.608 129.184 471.096 123.904 479.736 120.256C 488.376 116.416 497.784 114.496 507.96 114.496C 518.136 114.496 527.544 116.416 536.184 120.256C 544.824 123.904 552.216 129.184 558.36 136.096C 564.696 143.008 569.592 151.36 573.048 161.152C 576.504 170.752 578.232 181.408 578.232 193.12ZM 550.296 193.12C 550.296 176.224 546.456 162.88 538.776 153.088C 531.288 143.104 521.016 138.112 507.96 138.112C 494.904 138.112 484.536 143.104 476.856 153.088C 469.368 162.88 465.624 176.224 465.624 193.12C 465.624 210.016 469.368 223.456 476.856 233.44C 484.536 243.232 494.904 248.128 507.96 248.128C 521.016 248.128 531.288 243.232 538.776 233.44C 546.456 223.456 550.296 210.016 550.296 193.12Z"/>
<path id="path13_fill" d="M 12.0046 0L 22.4008 94.7813L 1.60831 94.7813L 12.0046 0Z"/>
</defs>
</svg>
